<svg width="151" height="118" viewBox="0 0 151 118" fill="none" xmlns="http://www.w3.org/2000/svg">
<g style="mix-blend-mode:overlay">
<path d="M144.548 0.545898V9.11133C132.428 13.5397 122.93 20.5319 116.055 30.0879C109.179 39.5273 105.741 49.3747 105.741 59.6299C105.741 61.8441 106.091 63.4756 106.79 64.5244C107.256 65.2236 107.781 65.5732 108.363 65.5732C108.946 65.5732 109.82 65.1654 110.985 64.3496C114.715 61.6693 119.434 60.3291 125.145 60.3291C131.787 60.3291 137.672 63.0677 142.8 68.5449C147.927 73.9056 150.491 80.3151 150.491 87.7734C150.491 95.5814 147.52 102.457 141.576 108.4C135.749 114.344 128.641 117.315 120.25 117.315C110.461 117.315 102.012 113.295 94.9033 105.254C87.7946 97.2129 84.2402 86.4333 84.2402 72.915C84.2402 57.1826 89.0765 43.0817 98.749 30.6123C108.422 18.1429 123.688 8.12077 144.548 0.545898ZM60.4668 0.545898V9.11133C48.347 13.5397 38.8493 20.5319 31.9736 30.0879C25.098 39.5273 21.6602 49.3747 21.6602 59.6299C21.6602 61.8441 22.0098 63.4756 22.709 64.5244C23.1751 65.2236 23.6995 65.5732 24.2822 65.5732C24.8649 65.5732 25.7389 65.1654 26.9043 64.3496C30.6335 61.6693 35.3532 60.3291 41.0635 60.3291C47.7061 60.3291 53.5911 63.0677 58.7188 68.5449C63.8464 73.9056 66.4102 80.3151 66.4102 87.7734C66.4102 95.5814 63.4385 102.457 57.4951 108.4C51.6683 114.344 44.5596 117.315 36.1689 117.315C26.3799 117.315 17.931 113.295 10.8223 105.254C3.71354 97.2129 0.15918 86.4333 0.15918 72.915C0.15918 57.1826 4.99544 43.0817 14.668 30.6123C24.3405 18.1429 39.6068 8.12077 60.4668 0.545898Z" fill="black"/>
</g>
</svg>
